<svg width="86" height="139" viewBox="0 0 86 139" fill="none" xmlns="http://www.w3.org/2000/svg">
<path d="M79.9 18.5712C79.8532 13.4622 73.0777 11.699 70.5531 16.1389L5.54968 130.46C3.64522 133.809 6.08837 137.966 9.94253 137.934L21.1912 137.84L41.1236 137.673L75.9887 137.382C78.75 137.359 80.968 135.102 80.9427 132.34L79.9 18.5712Z" fill="#7FA4E8"/>
<path d="M0.185782 21.9713C0.132821 15.919 8.05757 13.6044 11.2704 18.7338L80.0562 128.552C82.5592 132.548 79.6866 137.737 74.9713 137.737L72.0963 137.737C69.1573 137.737 66.6509 135.608 66.1754 132.708L63.2309 114.75C62.0725 107.684 51.7423 108.219 51.3204 115.367L50.3333 132.09C50.1461 135.261 47.5201 137.737 44.3437 137.737L38.9033 137.737C35.832 137.737 33.2566 135.417 32.9361 132.363L31.1165 115.023C30.3695 107.904 20.0298 107.837 19.1906 114.945L17.0955 132.693C16.7518 135.604 14.3549 137.841 11.4269 137.982L7.44051 138.175C4.03757 138.34 1.18046 135.642 1.15065 132.235L0.185782 21.9713Z" fill="#6365ED"/>
</svg>
